<?xml version="1.0" encoding="UTF-8" standalone="yes"?><svg xmlns="http://www.w3.org/2000/svg" xmlns:xlink="http://www.w3.org/1999/xlink" height="892px" style="width:1051px;height:892px;" version="1.1" viewBox="0 0 1051 892" width="1051px"><defs><filter height="300%" id="f1" width="300%" x="-1" y="-1"><feGaussianBlur result="blurOut" stdDeviation="2.0"/><feColorMatrix in="blurOut" result="blurOut2" type="matrix" values="0 0 0 0 0 0 0 0 0 0 0 0 0 0 0 0 0 0 .4 0"/><feOffset dx="4.0" dy="4.0" in="blurOut2" result="blurOut3"/><feBlend in="SourceGraphic" in2="blurOut3" mode="normal"/></filter></defs><g><rect fill="#ADD8E6" height="887.7813" style="stroke: #A80036; stroke-width: 1.0;" width="753" x="223" y="4"/><text fill="#000000" font-family="sans-serif" font-size="13" font-weight="bold" lengthAdjust="spacingAndGlyphs" textLength="41" x="579" y="16.0669">Лифт</text><line style="stroke: #A80036; stroke-width: 1.0; stroke-dasharray: 5.0,5.0;" x1="63" x2="63" y1="86.2969" y2="805.4844"/><line style="stroke: #A80036; stroke-width: 1.0; stroke-dasharray: 5.0,5.0;" x1="172" x2="172" y1="86.2969" y2="805.4844"/><line style="stroke: #A80036; stroke-width: 1.0; stroke-dasharray: 5.0,5.0;" x1="254" x2="254" y1="86.2969" y2="805.4844"/><line style="stroke: #A80036; stroke-width: 1.0; stroke-dasharray: 5.0,5.0;" x1="314" x2="314" y1="86.2969" y2="805.4844"/><line style="stroke: #A80036; stroke-width: 1.0; stroke-dasharray: 5.0,5.0;" x1="591.5" x2="591.5" y1="86.2969" y2="805.4844"/><line style="stroke: #A80036; stroke-width: 1.0; stroke-dasharray: 5.0,5.0;" x1="859" x2="859" y1="86.2969" y2="805.4844"/><line style="stroke: #A80036; stroke-width: 1.0; stroke-dasharray: 5.0,5.0;" x1="936" x2="936" y1="86.2969" y2="805.4844"/><line style="stroke: #A80036; stroke-width: 1.0; stroke-dasharray: 5.0,5.0;" x1="1014" x2="1014" y1="86.2969" y2="805.4844"/><text fill="#000000" font-family="sans-serif" font-size="14" lengthAdjust="spacingAndGlyphs" textLength="104" x="8" y="82.9951">Пользователь</text><ellipse cx="63" cy="13" fill="#FF0000" filter="url(#f1)" rx="8" ry="8" style="stroke: #A80036; stroke-width: 2.0;"/><path d="M63,21 L63,48 M50,29 L76,29 M63,48 L50,63 M63,48 L76,63 " fill="#FF0000" filter="url(#f1)" style="stroke: #A80036; stroke-width: 2.0;"/><text fill="#000000" font-family="sans-serif" font-size="14" lengthAdjust="spacingAndGlyphs" textLength="104" x="8" y="817.4795">Пользователь</text><ellipse cx="63" cy="830.7813" fill="#FF0000" filter="url(#f1)" rx="8" ry="8" style="stroke: #A80036; stroke-width: 2.0;"/><path d="M63,838.7813 L63,865.7813 M50,846.7813 L76,846.7813 M63,865.7813 L50,880.7813 M63,865.7813 L76,880.7813 " fill="#FF0000" filter="url(#f1)" style="stroke: #A80036; stroke-width: 2.0;"/><text fill="#000000" font-family="sans-serif" font-size="14" lengthAdjust="spacingAndGlyphs" textLength="83" x="128" y="82.9951">Механизмы</text><ellipse cx="172.5" cy="54" fill="#FFA500" filter="url(#f1)" rx="12" ry="12" style="stroke: #A80036; stroke-width: 2.0;"/><polygon fill="#A80036" points="168.5,42,174.5,37,172.5,42,174.5,47,168.5,42" style="stroke: #A80036; stroke-width: 1.0;"/><text fill="#000000" font-family="sans-serif" font-size="14" lengthAdjust="spacingAndGlyphs" textLength="83" x="128" y="817.4795">Механизмы</text><ellipse cx="172.5" cy="836.7813" fill="#FFA500" filter="url(#f1)" rx="12" ry="12" style="stroke: #A80036; stroke-width: 2.0;"/><polygon fill="#A80036" points="168.5,824.7813,174.5,819.7813,172.5,824.7813,174.5,829.7813,168.5,824.7813" style="stroke: #A80036; stroke-width: 1.0;"/><rect fill="#FEFECE" filter="url(#f1)" height="30.2969" style="stroke: #A80036; stroke-width: 1.5;" width="50" x="227" y="51"/><text fill="#000000" font-family="sans-serif" font-size="14" lengthAdjust="spacingAndGlyphs" textLength="36" x="234" y="70.9951">Свет</text><rect fill="#FEFECE" filter="url(#f1)" height="30.2969" style="stroke: #A80036; stroke-width: 1.5;" width="50" x="227" y="804.4844"/><text fill="#000000" font-family="sans-serif" font-size="14" lengthAdjust="spacingAndGlyphs" textLength="36" x="234" y="824.4795">Свет</text><rect fill="#FEFECE" filter="url(#f1)" height="30.2969" style="stroke: #A80036; stroke-width: 1.5;" width="42" x="291" y="51"/><text fill="#000000" font-family="sans-serif" font-size="14" lengthAdjust="spacingAndGlyphs" textLength="28" x="298" y="70.9951">Пол</text><rect fill="#FEFECE" filter="url(#f1)" height="30.2969" style="stroke: #A80036; stroke-width: 1.5;" width="42" x="291" y="804.4844"/><text fill="#000000" font-family="sans-serif" font-size="14" lengthAdjust="spacingAndGlyphs" textLength="28" x="298" y="824.4795">Пол</text><rect fill="#FEFECE" filter="url(#f1)" height="30.2969" style="stroke: #A80036; stroke-width: 1.5;" width="105" x="537.5" y="51"/><text fill="#000000" font-family="sans-serif" font-size="14" lengthAdjust="spacingAndGlyphs" textLength="91" x="544.5" y="70.9951">Контроллер</text><rect fill="#FEFECE" filter="url(#f1)" height="30.2969" style="stroke: #A80036; stroke-width: 1.5;" width="105" x="537.5" y="804.4844"/><text fill="#000000" font-family="sans-serif" font-size="14" lengthAdjust="spacingAndGlyphs" textLength="91" x="544.5" y="824.4795">Контроллер</text><rect fill="#FEFECE" filter="url(#f1)" height="30.2969" style="stroke: #A80036; stroke-width: 1.5;" width="60" x="827" y="51"/><text fill="#000000" font-family="sans-serif" font-size="14" lengthAdjust="spacingAndGlyphs" textLength="46" x="834" y="70.9951">Дверь</text><rect fill="#FEFECE" filter="url(#f1)" height="30.2969" style="stroke: #A80036; stroke-width: 1.5;" width="60" x="827" y="804.4844"/><text fill="#000000" font-family="sans-serif" font-size="14" lengthAdjust="spacingAndGlyphs" textLength="46" x="834" y="824.4795">Дверь</text><rect fill="#FEFECE" filter="url(#f1)" height="30.2969" style="stroke: #A80036; stroke-width: 1.5;" width="67" x="901" y="51"/><text fill="#000000" font-family="sans-serif" font-size="14" lengthAdjust="spacingAndGlyphs" textLength="53" x="908" y="70.9951">Кнопка</text><rect fill="#FEFECE" filter="url(#f1)" height="30.2969" style="stroke: #A80036; stroke-width: 1.5;" width="67" x="901" y="804.4844"/><text fill="#000000" font-family="sans-serif" font-size="14" lengthAdjust="spacingAndGlyphs" textLength="53" x="908" y="824.4795">Кнопка</text><rect fill="#FEFECE" filter="url(#f1)" height="30.2969" style="stroke: #A80036; stroke-width: 1.5;" width="60" x="982" y="51"/><text fill="#000000" font-family="sans-serif" font-size="14" lengthAdjust="spacingAndGlyphs" textLength="46" x="989" y="70.9951">Вызов</text><rect fill="#FEFECE" filter="url(#f1)" height="30.2969" style="stroke: #A80036; stroke-width: 1.5;" width="60" x="982" y="804.4844"/><text fill="#000000" font-family="sans-serif" font-size="14" lengthAdjust="spacingAndGlyphs" textLength="46" x="989" y="824.4795">Вызов</text><polygon fill="#A80036" points="1002,113.2969,1012,117.2969,1002,121.2969,1006,117.2969" style="stroke: #A80036; stroke-width: 1.0;"/><line style="stroke: #A80036; stroke-width: 1.0;" x1="63" x2="1008" y1="117.2969" y2="117.2969"/><text fill="#000000" font-family="sans-serif" font-size="13" lengthAdjust="spacingAndGlyphs" textLength="90" x="70" y="112.3638">Вызов лифта</text><polygon fill="#A80036" points="603,142.4297,593,146.4297,603,150.4297,599,146.4297" style="stroke: #A80036; stroke-width: 1.0;"/><line style="stroke: #A80036; stroke-width: 1.0;" x1="597" x2="1013" y1="146.4297" y2="146.4297"/><text fill="#000000" font-family="sans-serif" font-size="13" lengthAdjust="spacingAndGlyphs" textLength="150" x="609" y="141.4966">Вызов лифта на этаж</text><polygon fill="#A80036" points="1002,171.5625,1012,175.5625,1002,179.5625,1006,175.5625" style="stroke: #A80036; stroke-width: 1.0;"/><line style="stroke: #A80036; stroke-width: 1.0; stroke-dasharray: 2.0,2.0;" x1="592" x2="1008" y1="175.5625" y2="175.5625"/><text fill="#000000" font-family="sans-serif" font-size="13" lengthAdjust="spacingAndGlyphs" textLength="336" x="599" y="170.6294">Подтверждение вызова и включение подсветки</text><polygon fill="#A80036" points="183.5,200.6953,173.5,204.6953,183.5,208.6953,179.5,204.6953" style="stroke: #A80036; stroke-width: 1.0;"/><line style="stroke: #A80036; stroke-width: 1.0;" x1="177.5" x2="591" y1="204.6953" y2="204.6953"/><text fill="#000000" font-family="sans-serif" font-size="13" lengthAdjust="spacingAndGlyphs" textLength="203" x="189.5" y="199.7622">Инициируем поездку на этаж</text><polygon fill="#A80036" points="580,229.8281,590,233.8281,580,237.8281,584,233.8281" style="stroke: #A80036; stroke-width: 1.0;"/><line style="stroke: #A80036; stroke-width: 1.0; stroke-dasharray: 2.0,2.0;" x1="172.5" x2="586" y1="233.8281" y2="233.8281"/><text fill="#000000" font-family="sans-serif" font-size="13" lengthAdjust="spacingAndGlyphs" textLength="119" x="179.5" y="228.895">Прибыли на этаж</text><polygon fill="#A80036" points="1002,258.9609,1012,262.9609,1002,266.9609,1006,262.9609" style="stroke: #A80036; stroke-width: 1.0;"/><line style="stroke: #A80036; stroke-width: 1.0;" x1="592" x2="1008" y1="262.9609" y2="262.9609"/><text fill="#000000" font-family="sans-serif" font-size="13" lengthAdjust="spacingAndGlyphs" textLength="189" x="599" y="258.0278">Тушим световой индикатор</text><polygon fill="#A80036" points="847,288.0938,857,292.0938,847,296.0938,851,292.0938" style="stroke: #A80036; stroke-width: 1.0;"/><line style="stroke: #A80036; stroke-width: 1.0;" x1="592" x2="853" y1="292.0938" y2="292.0938"/><text fill="#000000" font-family="sans-serif" font-size="13" lengthAdjust="spacingAndGlyphs" textLength="116" x="599" y="287.1606">Открытие двери</text><polygon fill="#A80036" points="603,317.2266,593,321.2266,603,325.2266,599,321.2266" style="stroke: #A80036; stroke-width: 1.0;"/><line style="stroke: #A80036; stroke-width: 1.0; stroke-dasharray: 2.0,2.0;" x1="597" x2="858" y1="321.2266" y2="321.2266"/><text fill="#000000" font-family="sans-serif" font-size="13" lengthAdjust="spacingAndGlyphs" textLength="243" x="609" y="316.2935">Оповещение об открытии (датчик)</text><polygon fill="#A80036" points="302,346.3594,312,350.3594,302,354.3594,306,350.3594" style="stroke: #A80036; stroke-width: 1.0;"/><line style="stroke: #A80036; stroke-width: 1.0;" x1="63" x2="308" y1="350.3594" y2="350.3594"/><text fill="#000000" font-family="sans-serif" font-size="13" lengthAdjust="spacingAndGlyphs" textLength="111" x="70" y="345.4263">Заходит в лифт</text><polygon fill="#A80036" points="580,375.4922,590,379.4922,580,383.4922,584,379.4922" style="stroke: #A80036; stroke-width: 1.0;"/><line style="stroke: #A80036; stroke-width: 1.0;" x1="314" x2="586" y1="379.4922" y2="379.4922"/><text fill="#000000" font-family="sans-serif" font-size="13" lengthAdjust="spacingAndGlyphs" textLength="254" x="321" y="374.5591">Оповещение о присутствии тяжести</text><polygon fill="#A80036" points="265,404.625,255,408.625,265,412.625,261,408.625" style="stroke: #A80036; stroke-width: 1.0;"/><line style="stroke: #A80036; stroke-width: 1.0;" x1="259" x2="591" y1="408.625" y2="408.625"/><text fill="#000000" font-family="sans-serif" font-size="13" lengthAdjust="spacingAndGlyphs" textLength="165" x="271" y="403.6919">Зажигаем свет в лифте</text><polygon fill="#A80036" points="924.5,433.7578,934.5,437.7578,924.5,441.7578,928.5,437.7578" style="stroke: #A80036; stroke-width: 1.0;"/><line style="stroke: #A80036; stroke-width: 1.0;" x1="63" x2="930.5" y1="437.7578" y2="437.7578"/><text fill="#000000" font-family="sans-serif" font-size="13" lengthAdjust="spacingAndGlyphs" textLength="63" x="70" y="432.8247">Нажатие</text><polygon fill="#A80036" points="603,462.8906,593,466.8906,603,470.8906,599,466.8906" style="stroke: #A80036; stroke-width: 1.0;"/><line style="stroke: #A80036; stroke-width: 1.0;" x1="597" x2="935.5" y1="466.8906" y2="466.8906"/><text fill="#000000" font-family="sans-serif" font-size="13" lengthAdjust="spacingAndGlyphs" textLength="208" x="609" y="461.9575">Оповещение о выборе эатажа</text><polygon fill="#A80036" points="924.5,492.0234,934.5,496.0234,924.5,500.0234,928.5,496.0234" style="stroke: #A80036; stroke-width: 1.0;"/><line style="stroke: #A80036; stroke-width: 1.0; stroke-dasharray: 2.0,2.0;" x1="592" x2="930.5" y1="496.0234" y2="496.0234"/><text fill="#000000" font-family="sans-serif" font-size="13" lengthAdjust="spacingAndGlyphs" textLength="154" x="599" y="491.0903">Включение подсветки</text><polygon fill="#A80036" points="847,521.1563,857,525.1563,847,529.1563,851,525.1563" style="stroke: #A80036; stroke-width: 1.0;"/><line style="stroke: #A80036; stroke-width: 1.0;" x1="592" x2="853" y1="525.1563" y2="525.1563"/><text fill="#000000" font-family="sans-serif" font-size="13" lengthAdjust="spacingAndGlyphs" textLength="114" x="599" y="520.2231">Закрытие двери</text><polygon fill="#A80036" points="603,550.2891,593,554.2891,603,558.2891,599,554.2891" style="stroke: #A80036; stroke-width: 1.0;"/><line style="stroke: #A80036; stroke-width: 1.0; stroke-dasharray: 2.0,2.0;" x1="597" x2="858" y1="554.2891" y2="554.2891"/><text fill="#000000" font-family="sans-serif" font-size="13" lengthAdjust="spacingAndGlyphs" textLength="184" x="609" y="549.356">Дверь закрылась (датчик)</text><polygon fill="#A80036" points="183.5,579.4219,173.5,583.4219,183.5,587.4219,179.5,583.4219" style="stroke: #A80036; stroke-width: 1.0;"/><line style="stroke: #A80036; stroke-width: 1.0;" x1="177.5" x2="591" y1="583.4219" y2="583.4219"/><text fill="#000000" font-family="sans-serif" font-size="13" lengthAdjust="spacingAndGlyphs" textLength="203" x="189.5" y="578.4888">Инициируем поездку на этаж</text><polygon fill="#A80036" points="580,608.5547,590,612.5547,580,616.5547,584,612.5547" style="stroke: #A80036; stroke-width: 1.0;"/><line style="stroke: #A80036; stroke-width: 1.0; stroke-dasharray: 2.0,2.0;" x1="172.5" x2="586" y1="612.5547" y2="612.5547"/><text fill="#000000" font-family="sans-serif" font-size="13" lengthAdjust="spacingAndGlyphs" textLength="128" x="179.5" y="607.6216">Прибытие на этаж</text><polygon fill="#A80036" points="924.5,637.6875,934.5,641.6875,924.5,645.6875,928.5,641.6875" style="stroke: #A80036; stroke-width: 1.0;"/><line style="stroke: #A80036; stroke-width: 1.0;" x1="592" x2="930.5" y1="641.6875" y2="641.6875"/><text fill="#000000" font-family="sans-serif" font-size="13" lengthAdjust="spacingAndGlyphs" textLength="116" x="599" y="636.7544">Гасим подсветку</text><polygon fill="#A80036" points="847,666.8203,857,670.8203,847,674.8203,851,670.8203" style="stroke: #A80036; stroke-width: 1.0;"/><line style="stroke: #A80036; stroke-width: 1.0;" x1="592" x2="853" y1="670.8203" y2="670.8203"/><text fill="#000000" font-family="sans-serif" font-size="13" lengthAdjust="spacingAndGlyphs" textLength="116" x="599" y="665.8872">Открытие двери</text><polygon fill="#A80036" points="302,695.9531,312,699.9531,302,703.9531,306,699.9531" style="stroke: #A80036; stroke-width: 1.0;"/><line style="stroke: #A80036; stroke-width: 1.0;" x1="63" x2="308" y1="699.9531" y2="699.9531"/><text fill="#000000" font-family="sans-serif" font-size="13" lengthAdjust="spacingAndGlyphs" textLength="123" x="70" y="695.02">Покидание лифта</text><polygon fill="#A80036" points="580,725.0859,590,729.0859,580,733.0859,584,729.0859" style="stroke: #A80036; stroke-width: 1.0;"/><line style="stroke: #A80036; stroke-width: 1.0;" x1="314" x2="586" y1="729.0859" y2="729.0859"/><text fill="#000000" font-family="sans-serif" font-size="13" lengthAdjust="spacingAndGlyphs" textLength="224" x="321" y="724.1528">Оповещение о покидании лифта</text><polygon fill="#A80036" points="265,754.2188,255,758.2188,265,762.2188,261,758.2188" style="stroke: #A80036; stroke-width: 1.0;"/><line style="stroke: #A80036; stroke-width: 1.0;" x1="259" x2="591" y1="758.2188" y2="758.2188"/><text fill="#000000" font-family="sans-serif" font-size="13" lengthAdjust="spacingAndGlyphs" textLength="130" x="271" y="753.2856">Выключение света</text><polygon fill="#A80036" points="847,783.3516,857,787.3516,847,791.3516,851,787.3516" style="stroke: #A80036; stroke-width: 1.0;"/><line style="stroke: #A80036; stroke-width: 1.0;" x1="592" x2="853" y1="787.3516" y2="787.3516"/><text fill="#000000" font-family="sans-serif" font-size="13" lengthAdjust="spacingAndGlyphs" textLength="114" x="599" y="782.4185">Закрытие двери</text></g></svg>
